<!--?xml version="1.0" encoding="utf-8"?-->
<!-- Generator: Adobe Illustrator 18.1.1, SVG Export Plug-In . SVG Version: 6.00 Build 0)  -->

<svg version="1.1" id="_x31_0" xmlns="http://www.w3.org/2000/svg" xmlns:xlink="http://www.w3.org/1999/xlink" x="0px" y="0px" viewBox="0 0 512 512" style="width: 32px; height: 32px; opacity: 1;" xml:space="preserve">
<style type="text/css">
	.st0 { fill: #4b4b4b; }
</style>
<g>
	<path class="st0" d="M495.16,91.736c-2.019-1.078-50.031-26.438-102.847-26.438c-20.797,0-39.867,3.906-56.68,11.61
		c-35.382,16.218-58.442,48.226-72.754,76.511c-2.562,4.996-4.891,9.891-6.938,14.551c-13.325-31.008-37.938-71.977-79.578-91.062
		c-16.809-7.703-35.879-11.61-56.676-11.61c-52.816,0-100.828,25.359-102.847,26.438L0,100.748l4.168,18.636
		c0.894,4,22.718,98.36,92.906,130.528c16.809,7.706,35.875,11.613,56.676,11.613c27.699,0,53.98-6.973,73.09-13.762
		c2.004-0.691,3.988-1.382,5.82-2.058v177.656c0,12.89,10.45,23.34,23.34,23.34c12.89,0,23.34-10.45,23.34-23.34V292.369
		l0.054-46.699c19.367,7.363,48.293,15.855,78.856,15.855h0.003c20.794,0,39.863-3.906,56.672-11.613
		c70.188-32.168,92.012-126.528,92.906-130.528L512,100.748L495.16,91.736z M297.828,198.9c8.551-23.516,26.801-61.649,58.75-76.293
		c10.195-4.672,22.214-7.039,35.734-7.039c22.801,0,45.238,6.617,60.363,12.332c-8.618,23.531-26.961,61.766-58.695,76.313
		c-10.192,4.671-22.211,7.038-35.73,7.038C335.426,211.252,312.957,204.619,297.828,198.9z M119.687,115.568
		c13.52,0,25.539,2.367,35.73,7.039c31.966,14.648,50.211,52.793,58.754,76.293c-15.137,5.722-37.598,12.351-60.422,12.351
		c-13.52,0-25.539-2.367-35.731-7.038c-31.957-14.649-50.206-52.794-58.754-76.29C74.406,122.197,96.863,115.568,119.687,115.568z"></path>
</g>
</svg>
