<?xml version="1.0" encoding="utf-8"?>
<!-- Generator: Adobe Illustrator 12.0.0, SVG Export Plug-In . SVG Version: 6.00 Build 51448)  -->
<!DOCTYPE svg PUBLIC "-//W3C//DTD SVG 1.1//EN" "http://www.w3.org/Graphics/SVG/1.1/DTD/svg11.dtd" [
	<!ENTITY ns_svg "http://www.w3.org/2000/svg">
	<!ENTITY ns_xlink "http://www.w3.org/1999/xlink">
]>
<svg  version="1.1" id="レイヤー_1" xmlns="&ns_svg;" xmlns:xlink="&ns_xlink;" width="907.858" height="416.496"
	 viewBox="0 0 907.858 416.496" overflow="visible" enable-background="new 0 0 907.858 416.496" xml:space="preserve">
<g>
	<path fill="#E83920" d="M414.929,143.052h-13h6.598l-6.166-2.497c-0.135,0.341-0.427,1.172-0.432,2.497h6.598l-6.166-2.497
		l2.712,1.098l-2.632-1.279l-0.08,0.181l2.712,1.098l-2.632-1.279l0.791,0.384l-0.768-0.431l-0.023,0.046l0.791,0.384l-0.768-0.431
		c-0.009,0.02-0.2,0.333-0.59,0.806c-0.752,0.928-2.232,2.427-4.292,4.149c-3.871,3.259-9.745,7.341-17.008,11.728
		c-12.73,7.706-29.747,16.445-48.881,25.095c-28.712,12.989-62.264,25.831-93.899,35.334c-15.813,4.754-31.151,8.674-45.097,11.379
		c-13.935,2.711-26.509,4.183-36.522,4.174c-18.338,0-35.748-3.025-51.5-8.447c-23.636-8.126-43.488-21.662-57.221-38.219
		c-6.874-8.28-12.232-17.304-15.874-26.829c-3.64-9.53-5.577-19.559-5.58-30c0.007-13.917,3.439-27.122,9.786-39.35
		c4.762-9.162,11.181-17.752,19.035-25.496c11.775-11.614,26.784-21.303,44.026-28.06C116.088,29.83,135.544,25.999,156.174,26
		c8.458-0.011,19.06,1.443,30.868,4.206c10.34,2.41,21.624,5.799,33.391,9.935c20.6,7.237,42.681,16.759,64.111,27.251
		c16.075,7.869,31.792,16.283,46.278,24.677c10.865,6.295,21.039,12.579,30.144,18.6c6.829,4.514,13.056,8.881,18.508,12.975
		c4.089,3.069,7.741,5.985,10.871,8.674c2.347,2.015,4.399,3.903,6.109,5.607c2.565,2.542,4.36,4.73,5.189,6.015
		c0.208,0.317,0.356,0.571,0.446,0.741c0.068,0.127,0.104,0.207,0.111,0.225l0.001,0.003l2.599-1.056l-2.727,0.615
		c0.069,0.301,0.125,0.434,0.127,0.441l2.599-1.056l-2.727,0.615l6.276-1.417h-6.423c0,0.646,0.08,1.117,0.146,1.417l6.276-1.417
		h-6.423H414.929h13c-0.008-2.719-0.573-5.032-1.298-7.044c-0.712-1.954-1.598-3.661-2.583-5.279
		c-1.915-3.118-4.225-5.94-6.929-8.839c-2.536-2.707-5.426-5.449-8.667-8.284c-6.072-5.308-13.382-10.94-21.729-16.834
		c-14.599-10.303-32.366-21.385-51.801-32.293c-29.153-16.355-62.01-32.294-93.354-44.274
		c-15.679-5.988-30.978-10.988-45.348-14.534C181.839,2.135,168.417,0.013,156.174,0c-21.198,0-41.454,3.494-59.96,9.862
		C68.462,19.421,44.592,35.43,27.45,56.058C18.887,66.371,12.019,77.85,7.294,90.212C2.567,102.569-0.003,115.811,0,129.496
		c-0.007,18.252,4.574,35.694,12.717,51.341c6.105,11.745,14.197,22.501,23.85,32.018c14.485,14.276,32.478,25.785,52.791,33.752
		c20.314,7.964,42.968,12.384,66.817,12.385c10.962-0.006,23.078-1.349,36.09-3.649c22.749-4.038,48.228-11.056,73.861-19.633
		c19.218-6.436,38.501-13.752,56.669-21.373c13.626-5.717,26.624-11.605,38.505-17.433c8.912-4.372,17.194-8.709,24.66-12.932
		c5.6-3.168,10.74-6.271,15.36-9.296c3.466-2.271,6.639-4.497,9.51-6.7c2.154-1.654,4.138-3.294,5.959-4.957
		c2.73-2.509,5.106-5.013,7.14-8.009c1.011-1.507,1.942-3.154,2.691-5.104c0.739-1.942,1.305-4.234,1.308-6.855H414.929z"/>
	<path fill="#E83920" d="M440.929,140.496v45c0,7.18,5.82,13,13,13c7.18,0,13-5.82,13-13v-45c0-7.18-5.82-13-13-13
		C446.75,127.496,440.929,133.316,440.929,140.496"/>
	<path fill="#E83920" d="M409.471,180.686l-245,213c-5.418,4.71-5.992,12.922-1.281,18.34c4.71,5.418,12.921,5.992,18.34,1.281
		l245-213c5.418-4.71,5.992-12.921,1.281-18.34C423.1,176.548,414.889,175.975,409.471,180.686"/>
	<path fill="#E83920" d="M492.929,143.052h-13c0.005,2.807,0.648,5.229,1.468,7.261c0.806,1.978,1.791,3.644,2.86,5.176
		c2.081,2.95,4.504,5.451,7.289,7.963c2.612,2.342,5.553,4.653,8.833,7.01c6.146,4.411,13.49,8.979,21.863,13.706
		c14.641,8.259,32.415,16.971,51.847,25.47c29.142,12.738,61.963,24.97,93.194,34.097c15.62,4.562,30.84,8.348,45.07,11.018
		c14.24,2.664,27.464,4.233,39.33,4.241c21.198-0.001,41.454-3.494,59.961-9.862c27.751-9.559,51.621-25.567,68.764-46.195
		c8.563-10.313,15.431-21.792,20.156-34.154c4.727-12.357,7.297-25.599,7.294-39.284c0.007-18.252-4.573-35.694-12.717-51.341
		c-6.105-11.745-14.197-22.501-23.851-32.018c-14.485-14.277-32.478-25.785-52.79-33.752C798.187,4.421,775.532,0.001,751.684,0
		c-11.311,0.01-23.621,1.827-36.773,4.885c-22.987,5.371-48.55,14.624-74.248,25.823c-38.526,16.813-77.222,37.996-106.733,57.364
		c-7.381,4.847-14.19,9.584-20.302,14.139c-4.583,3.417-8.773,6.731-12.53,9.933c-2.818,2.402-5.393,4.741-7.717,7.036
		c-3.487,3.457-6.414,6.757-8.798,10.334c-1.188,1.8-2.252,3.681-3.112,5.852c-0.429,1.086-0.804,2.25-1.082,3.523
		c-0.277,1.272-0.459,2.661-0.459,4.162H492.929h13h-5.293l5.031,1.826c0.039-0.125,0.254-0.695,0.262-1.826h-5.293l5.031,1.826
		l-0.974-0.353l0.962,0.383l0.012-0.03l-0.974-0.353l0.962,0.383l-0.141-0.056l0.14,0.058l0.001-0.002l-0.141-0.056l0.14,0.058
		c0.003-0.013,0.164-0.365,0.52-0.909c0.683-1.067,2.073-2.823,4.054-4.88c3.718-3.889,9.463-8.874,16.639-14.331
		c12.577-9.583,29.565-20.725,48.76-31.902c28.798-16.78,62.639-33.703,94.516-46.287c15.932-6.293,31.376-11.502,45.348-15.089
		c6.984-1.794,13.597-3.183,19.688-4.113c6.089-0.932,11.655-1.401,16.507-1.399c18.338,0,35.748,3.026,51.5,8.447
		c23.636,8.126,43.488,21.662,57.221,38.219c6.874,8.28,12.233,17.304,15.874,26.829c3.64,9.53,5.577,19.558,5.58,30
		c-0.007,13.917-3.439,27.122-9.786,39.35c-4.762,9.162-11.182,17.752-19.035,25.495c-11.775,11.615-26.784,21.303-44.026,28.061
		c-17.241,6.761-36.697,10.592-57.327,10.591c-8.806,0.006-19.603-1.127-31.552-3.251c-20.934-3.705-45.413-10.401-70.145-18.687
		c-18.556-6.212-37.277-13.314-54.866-20.694c-13.191-5.534-25.747-11.224-37.113-16.799c-8.522-4.181-16.377-8.298-23.31-12.219
		c-5.198-2.94-9.878-5.771-13.915-8.416c-3.026-1.982-5.691-3.86-7.925-5.575c-1.674-1.285-3.105-2.479-4.255-3.529
		c-1.726-1.562-2.803-2.856-3.109-3.334l-0.083-0.129l-0.019-0.032l-2.928,1.598l3.175-0.959c-0.135-0.441-0.243-0.628-0.247-0.639
		l-2.928,1.598l3.175-0.959l-6.906,2.086h7.195c-0.001-0.942-0.157-1.649-0.289-2.086l-6.906,2.086h7.195H492.929z"/>
	<path fill="#E83920" d="M481.329,200.307l245,213c5.418,4.711,13.63,4.137,18.34-1.281c4.711-5.418,4.137-13.63-1.281-18.34
		l-245-213c-5.418-4.711-13.63-4.137-18.34,1.281C475.337,187.385,475.911,195.596,481.329,200.307"/>
</g>
</svg>
