<?xml version="1.0" encoding="utf-8"?>
<!-- Generator: Adobe Illustrator 12.0.0, SVG Export Plug-In . SVG Version: 6.00 Build 51448)  -->
<!DOCTYPE svg PUBLIC "-//W3C//DTD SVG 1.1//EN" "http://www.w3.org/Graphics/SVG/1.1/DTD/svg11.dtd" [
	<!ENTITY ns_svg "http://www.w3.org/2000/svg">
	<!ENTITY ns_xlink "http://www.w3.org/1999/xlink">
]>
<svg  version="1.1" id="レイヤー_1" xmlns="&ns_svg;" xmlns:xlink="&ns_xlink;" width="1072.691" height="345.83"
	 viewBox="0 0 1072.691 345.83" overflow="visible" enable-background="new 0 0 1072.691 345.83" xml:space="preserve">
<path fill="#E83920" d="M783.356,234.653c-1.894-0.375-3.595-1.227-5.103-2.553c-1.516-1.321-3.121-2.55-4.822-3.683
	c-1.7-1.136-3.401-2.269-5.103-3.404c-1.701-1.134-3.31-2.268-4.82-3.403c-4.916-4.156-10.205-8.125-15.877-11.908
	c-5.669-3.775-11.058-7.655-16.159-11.622c-5.104-3.97-10.209-8.127-15.312-12.476c-5.103-4.345-10.489-8.409-16.161-12.191
	l-16.94-14.744c-0.755-1.509-1.697-2.926-2.828-4.252c-1.129-1.321-2.163-2.643-3.105-3.969c-0.941-1.321-1.601-2.74-1.975-4.254
	c-0.376-1.508-0.563-3.211-0.563-5.104c0.375-1.887,1.125-3.685,2.256-5.386c1.13-1.701,2.163-3.401,3.104-5.103
	c0.942-1.707,1.976-3.311,3.106-4.825c1.13-1.51,2.258-3.024,3.393-4.536l6.213-5.104c3.01-2.268,5.739-4.82,8.194-7.655
	c2.452-2.835,4.817-5.67,7.084-8.505c2.269-2.835,4.537-5.67,6.806-8.505c2.269-2.836,4.535-5.763,6.803-8.789
	c2.645-1.889,5.008-4.157,7.09-6.805c2.075-2.644,4.345-5.007,6.806-7.088c2.455-2.076,5.007-4.061,7.653-5.954
	c2.645-1.888,5.29-4.157,7.939-6.805l19.279-18.712c0.754-0.375,1.509-0.851,2.268-1.417c0.755-0.567,1.604-0.942,2.551-1.134
	c0.943-0.188,1.793-0.284,2.553-0.284c0.754,0,1.7,0,2.836,0l5.67,2.835c0.375,0.76,0.85,1.514,1.419,2.269
	c0.566,0.759,0.941,1.609,1.132,2.552c0.188,0.947,0.284,1.893,0.284,2.835c0,0.947,0,1.985,0,3.119l-3.971,6.804l-8.503,8.506
	l-10.207,7.938l-2.27,3.402l-5.102,4.536l-3.404,1.701v1.134c-1.513,1.135-3.216,2.177-5.103,3.119
	c-1.894,0.947-3.401,2.268-4.537,3.969c-1.133,1.701-2.363,3.215-3.685,4.536c-1.326,1.326-2.743,2.744-4.254,4.253h-1.135
	c-1.892,3.027-3.968,5.862-6.236,8.505c-2.269,2.648-4.445,5.387-6.521,8.223c-2.08,2.836-4.254,5.579-6.52,8.222
	c-2.269,2.648-4.729,5.294-7.373,7.944l-2.835,2.835c-0.76,0.759-1.514,1.417-2.268,1.984c-0.758,0.567-1.514,1.135-2.269,1.701
	c-0.758,0.567-1.418,1.23-1.985,1.985c-0.566,0.76-1.041,1.514-1.416,2.268v1.703l1.133,0.565l8.506,6.805
	c2.27,2.267,4.627,4.444,7.088,6.521c2.455,2.082,4.912,4.161,7.371,6.237c2.457,2.08,5.007,4.162,7.656,6.238
	c2.643,2.08,5.292,3.877,7.937,5.389c2.271,2.647,4.821,4.913,7.657,6.802c2.834,1.894,5.572,3.879,8.222,5.955
	c2.643,2.08,5.387,3.97,8.221,5.671c2.837,1.699,5.576,3.496,8.224,5.388v1.133l6.806,3.968c1.132,1.514,2.549,2.836,4.25,3.971
	c1.702,1.134,3.307,2.176,4.821,3.119c1.511,0.945,3.024,1.983,4.536,3.119c1.511,1.133,2.837,2.647,3.971,4.534l0.566,7.374
	l-2.836,5.67c-0.758,0.379-1.514,0.85-2.269,1.417c-0.758,0.567-1.608,0.946-2.552,1.134c-0.945,0.192-1.796,0.283-2.551,0.283
	C785.431,234.653,784.489,234.653,783.356,234.653z"/>
<g>
	<path fill="#E83920" d="M103.794,246.278l-6.221-2.836c-1.509-1.894-2.456-3.877-2.83-5.952c-0.38-2.081-0.567-4.351-0.567-6.806
		s0-4.912,0-7.371c0-2.455-0.192-4.82-0.566-7.089c0.374-11.716,0.658-23.435,0.85-35.156c0.188-11.716,0.376-23.34,0.566-34.873
		c0.188-11.528,0.472-23.25,0.852-35.163c0.375-11.907,0.567-23.719,0.567-35.439L95.31,33.631c0.375-0.754,0.659-1.417,0.852-1.985
		c0.188-0.566,0.375-1.226,0.566-1.984c0.188-0.754,0.471-1.418,0.846-1.985c0.375-0.567,0.755-1.226,1.131-1.984
		c0.754-0.375,1.604-0.851,2.547-1.418c0.941-0.567,1.885-0.942,2.826-1.134c0.942-0.188,1.789-0.284,2.543-0.284
		c0.75,0,1.692,0,2.827,0l5.652,2.836c2.26,5.67,3.293,11.908,3.105,18.712s-0.092,13.422,0.283,19.847
		c0.376,6.429,0.568,12.951,0.568,19.563c0,6.617,0,13.138,0,19.563c0,9.832-0.284,19.567-0.852,29.208
		c-0.566,9.641-0.942,19.28-1.129,28.92c-0.188,9.639-0.279,19.376-0.279,29.204c0,9.829-0.192,19.471-0.567,28.916l0.567,18.148
		l-2.827,5.668c-0.759,0.375-1.513,0.852-2.263,1.419c-0.756,0.567-1.602,0.941-2.544,1.133c-0.941,0.189-1.793,0.284-2.543,0.284
		C105.867,246.278,104.924,246.278,103.794,246.278z"/>
	<path fill="#E83920" d="M160.61,145.484c9.588,19.101,28.078,28.31,41.304,20.559c13.225-7.747,16.174-29.506,6.581-48.603
		c-9.585-19.105-28.073-28.304-41.298-20.562C153.971,104.629,151.023,126.387,160.61,145.484z"/>
	<path fill="#E83920" d="M53.521,142.217c-9.587,19.101-28.077,28.309-41.303,20.553c-13.226-7.743-16.174-29.5-6.582-48.602
		c9.586-19.104,28.073-28.299,41.298-20.558C60.16,101.357,63.109,123.114,53.521,142.217z"/>
</g>
<g>
	<path fill="#E83920" d="M375.061,62.794c2.644,0.38,5.291,0.664,7.938,0.851c2.644,0.192,5.195,0.567,7.655,1.134
		c2.455,0.567,4.91,1.23,7.371,1.985c2.456,0.759,4.628,1.893,6.521,3.402c0.376,0.759,0.852,1.514,1.419,2.268
		c0.566,0.759,1.037,1.609,1.416,2.552c0.376,0.947,0.567,1.893,0.567,2.835c0,0.947,0,1.985,0,3.119l-2.835,5.67
		c-0.759,0.38-1.514,0.851-2.268,1.418c-0.76,0.567-1.609,0.946-2.552,1.134c-0.946,0.192-1.798,0.284-2.552,0.284
		c-0.759,0-1.701,0-2.836,0c-4.536-1.889-9.451-3.21-14.743-3.97c-5.295-0.754-10.585-1.321-15.877-1.701
		c-5.295-0.375-10.49-0.85-15.594-1.417c-5.103-0.567-10.303-1.226-15.594-1.984l-7.371,1.134l-5.67-2.835
		c-0.38-0.755-0.852-1.51-1.419-2.269c-0.566-0.754-0.946-1.605-1.134-2.552c-0.192-0.942-0.283-1.889-0.283-2.835
		c0-0.942,0-1.985,0-3.119l3.402-6.238c1.134-0.754,2.172-1.417,3.118-1.984c0.942-0.567,2.077-0.942,3.402-1.134
		c1.322-0.188,2.644-0.283,3.97-0.283c1.321,0,2.552,0,3.687,0l24.949,3.401L375.061,62.794z"/>
	<path fill="#E83920" d="M379.597,166.97c-4.536-1.133-9.265-1.701-14.176-1.701c-4.916,0-9.736-0.092-14.461-0.283
		c-4.728-0.188-9.355-0.563-13.892-1.13c-4.537-0.566-8.886-1.981-13.042-4.238c-0.38-0.757-0.851-1.512-1.418-2.266
		c-0.567-0.751-0.946-1.601-1.134-2.542c-0.191-0.943-0.284-1.789-0.284-2.544c0-0.754,0-1.697,0-2.831l2.836-5.652
		c0.755-0.376,1.509-0.851,2.268-1.417c0.755-0.568,1.605-1.039,2.553-1.418c0.941-0.375,1.792-0.567,2.551-0.567
		c0.755,0,1.701,0,2.836,0c4.535,1.136,9.261,1.894,14.176,2.268c4.911,0.381,9.828,0.568,14.743,0.568
		c4.911,0,9.827,0.283,14.743,0.849c4.912,0.567,9.447,1.789,13.609,3.674c0.375,0.754,0.85,1.509,1.417,2.263
		c0.567,0.756,0.942,1.603,1.135,2.545c0.188,0.941,0.283,1.791,0.283,2.546s0,1.697,0,2.828l-2.835,5.651
		c-0.759,0.38-1.61,0.851-2.553,1.419c-0.945,0.565-1.984,0.94-3.117,1.13c-1.135,0.19-2.178,0.379-3.119,0.565
		C381.769,166.878,380.731,166.97,379.597,166.97z"/>
	<path fill="#E83920" d="M381.298,130.84c-4.162-1.51-8.603-2.456-13.325-2.835c-4.729-0.375-9.356-1.039-13.894-1.986
		c-4.535-0.942-9.168-1.604-13.892-1.984c-4.729-0.375-9.169-1.509-13.326-3.402c-0.38-0.754-0.851-1.51-1.418-2.268
		c-0.566-0.755-0.946-1.605-1.134-2.552c-0.191-0.942-0.283-1.793-0.283-2.552c0-0.754,0-1.701,0-2.835l2.835-5.67
		c1.134-0.755,2.173-1.509,3.118-2.268c0.942-0.755,1.985-1.226,3.119-1.418c1.135-0.188,2.456-0.284,3.97-0.284
		c1.509,0,2.835,0,3.97,0c3.777,1.134,7.746,2.081,11.907,2.835c4.157,0.758,8.409,1.417,12.759,1.984
		c4.344,0.567,8.597,1.134,12.758,1.701c4.157,0.568,7.938,1.985,11.341,4.253c0.375,0.759,0.852,1.514,1.419,2.268
		c0.567,0.759,0.941,1.61,1.133,2.551c0.188,0.947,0.283,1.798,0.283,2.552c0,0.759,0,1.701,0,2.835l-2.835,5.67
		c-0.759,0.379-1.417,0.759-1.984,1.134c-0.567,0.38-1.229,0.759-1.983,1.134c-0.76,0.381-1.515,0.567-2.27,0.567
		C382.808,130.273,382.053,130.464,381.298,130.84z"/>
	<path fill="#E83920" d="M571.946,248.534c-0.192-0.943-0.566-1.795-1.133-2.544c-0.568-0.75-1.043-1.505-1.419-2.263l-5.67-2.831
		c-1.514,0-3.026,0-4.537,0c-1.513,0-3.026,0.096-4.536,0.282c-1.514,0.192-2.93,0.382-4.253,0.567
		c-1.325,0.192-2.743,0.477-4.253,0.85c-9.073,0-18.057-0.373-26.938-1.133c-8.885-0.754-17.77-1.7-26.65-2.834
		c-8.886-1.136-17.392-3.874-25.518-8.223c-8.13-4.345-16.353-8.222-24.666-11.626l13.042-28.919c0-1.133,0-2.359,0-3.685
		c0-1.323-0.097-2.553-0.284-3.687c-0.191-1.133-0.566-2.173-1.134-3.119c-0.566-0.941-1.229-1.985-1.984-3.118
		c-0.759-0.376-1.514-0.851-2.269-1.418c-0.759-0.566-1.609-1.134-2.551-1.702c-0.947-0.565-1.798-1.133-2.552-1.699
		c-0.76-0.567-1.701-0.852-2.836-0.852c1.135-2.643,2.644-5.104,4.537-7.371c1.888-2.268,3.306-4.725,4.252-7.372
		c0.942-2.644,2.076-5.194,3.402-7.655c1.321-2.456,2.739-5.195,4.253-8.223c0-1.133,0-2.268,0-3.405
		c0-1.134-0.096-2.269-0.283-3.404c-0.192-1.133-0.567-2.172-1.135-3.118c-0.566-0.942-1.229-1.793-1.984-2.552
		c-2.647-2.268-5.67-4.157-9.072-5.67c-3.402-1.509-6.617-3.022-9.64-4.537c-3.028-1.509-6.051-3.119-9.073-4.819
		c-3.027-1.702-6.237-2.927-9.639-3.687c-1.135,0-2.27,0-3.403,0s-2.269,0.097-3.402,0.284c-1.134,0.192-2.176,0.567-3.119,1.134
		c-0.945,0.566-1.796,1.042-2.551,1.417l-2.836,5.67c0,1.134,0,2.177,0,3.119c0,0.947,0.092,1.893,0.284,2.835
		c0.188,0.946,0.658,1.894,1.417,2.835c0.755,0.946,1.322,1.797,1.701,2.552c1.889,1.514,4.061,2.363,6.521,2.551
		c2.456,0.191,4.724,0.947,6.804,2.269c2.077,1.325,4.157,2.461,6.238,3.402c2.075,0.951,4.253,1.99,6.521,3.123
		c-0.38,3.404-1.327,6.335-2.835,8.789c-1.515,2.462-3.027,4.918-4.537,7.373c-1.514,2.46-3.119,4.82-4.82,7.088
		s-2.743,4.914-3.118,7.938c0,1.135,0.092,2.177,0.283,3.12c0.188,0.946,0.376,1.893,0.566,2.836
		c0.188,0.945,0.567,1.796,1.135,2.551c0.566,0.76,1.038,1.514,1.418,2.268l10.773,7.371l-13.041,28.353h-1.135
		c-1.514,2.647-2.647,5.296-3.402,7.939c-0.76,2.647-1.701,5.294-2.836,7.938c-1.134,2.647-2.268,5.286-3.402,7.917
		c-1.134,2.635-2.08,5.246-2.835,7.855h-1.133c0-5.291-0.097-10.677-0.284-16.161c-0.192-5.478-0.567-10.864-1.135-16.16
		c-0.566-5.292-0.662-10.679-0.283-16.161c0.375-5.479-0.567-10.489-2.835-15.026c-4.161-3.401-8.886-5.196-14.176-5.387
		c-5.296-0.188-10.683-0.188-16.162,0c-5.482,0.19-10.773-0.188-15.877-1.135c-5.103-0.943-10.303-1.605-15.593-1.985
		c-1.135,0-2.081,0-2.836,0c-0.759,0-1.609,0.098-2.552,0.284c-0.946,0.192-1.797,0.567-2.551,1.133
		c-0.76,0.568-1.515,1.044-2.27,1.42c-2.268,4.536-3.685,9.45-4.252,14.742c-0.566,5.295-1.043,10.683-1.418,16.161
		c-0.38,5.482-0.946,10.774-1.7,15.877c-0.76,5.104-1.515,10.302-2.269,15.594c0,1.893,0,3.682,0,5.383
		c0,1.696,0.188,3.301,0.566,4.815c0.375,1.51,0.755,3.119,1.135,4.82c0.375,1.701,1.134,3.119,2.268,4.253l5.67,2.834l10.208-1.701
		c3.022,0,5.953,0,8.789,0c2.835,0,5.67,0,8.505,0s5.671,0.092,8.506,0.284c2.835,0.188,5.574,0.47,8.223,0.852l9.072-0.567h3.97
		l1.134,2.835l5.67,2.835c1.135,0,2.077,0,2.836,0c0.755,0,1.605-0.096,2.552-0.284c0.942-0.192,1.792-0.565,2.552-1.133
		c0.754-0.568,1.51-1.044,2.268-1.418c0.755-1.134,1.418-2.365,1.985-3.687c0.566-1.326,0.851-2.647,0.851-3.969
		c0-1.326,0-2.743,0-4.252c0-1.515,0-3.028,0-4.537h1.134l2.835,7.396l5.671,2.844c1.134,0,2.076,0,2.835,0
		c0.755,0,1.605-0.095,2.552-0.282c0.942-0.192,1.793-0.57,2.552-1.139c0.754-0.571,1.51-1.048,2.268-1.423l9.073-18.171
		c8.313,3.027,16.536,6.714,24.666,11.071c8.127,4.352,16.445,7.289,24.95,8.81c8.506,1.515,17.199,2.653,26.084,3.411
		c8.881,0.761,17.671,1.519,26.368,2.278c3.024,0,6.048-0.096,9.074-0.284c3.024-0.191,6.046-0.476,9.074-0.846
		c3.021-0.379,6.045-0.663,9.073-0.852c3.021-0.19,5.67-1.225,7.938-3.108l2.835-5.654c0-1.134,0-2.076,0-2.827
		C572.229,250.322,572.134,249.476,571.946,248.534z M380.626,241.418l-1.701,0.568c-3.402,0.378-6.712,0.283-9.924-0.284
		c-3.214-0.567-6.429-0.852-9.64-0.852c-3.215,0-6.521,0-9.923,0s-6.805,0-10.207,0c0-3.402,0.376-6.708,1.135-9.922
		c0.754-3.211,1.226-6.521,1.418-9.923c0.187-3.401,0.374-6.806,0.566-10.209c0.188-3.402,0.472-6.804,0.851-10.206
		c3.022-0.374,5.954-0.188,8.789,0.566c2.835,0.76,5.762,1.135,8.789,1.135c3.023,0,6.046,0,9.073,0c3.022,0,6.045,0,9.072,0
		l1.701,34.59V241.418z"/>
	<path fill="#E83920" d="M439.704,84.909l-5.671-2.835c-1.893-3.778-3.781-7.655-5.67-11.625c-1.894-3.969-3.877-7.843-5.954-11.625
		c-2.08-3.777-4.064-7.559-5.954-11.341c-1.893-3.777-2.835-7.938-2.835-12.475l2.835-5.67c0.755-0.375,1.51-0.851,2.269-1.418
		c0.755-0.567,1.605-0.942,2.552-1.134c0.942-0.188,1.793-0.284,2.552-0.284c0.755,0,1.701,0,2.835,0l5.671,2.835
		c2.268,3.782,4.252,7.563,5.953,11.341c1.701,3.782,3.687,7.563,5.954,11.341c2.269,3.782,4.345,7.655,6.238,11.624
		c1.889,3.969,2.835,8.222,2.835,12.758l-2.835,5.671c-0.76,0.379-1.514,0.851-2.268,1.417c-0.76,0.567-1.702,0.946-2.837,1.134
		c-1.134,0.192-2.08,0.284-2.835,0.284C441.781,84.909,440.837,84.909,439.704,84.909z"/>
	<path fill="#E83920" d="M509.965,229.355l-5.657-2.836c-0.755-1.133-1.413-2.457-1.98-3.97c-0.567-1.508-0.946-3.119-1.134-4.82
		c-0.192-1.701-0.284-3.401-0.284-5.103s0-3.307,0-4.818c0.755-4.158,1.226-8.316,1.418-12.479
		c0.187-4.156,0.375-8.408,0.567-12.757c0.187-4.345,0.282-8.79,0.282-13.325c0-4.537,0-8.882,0-13.043h-1.129
		c-2.26,4.537-4.615,8.981-7.062,13.324c-2.447,4.351-4.707,8.793-6.779,13.327c-2.071,4.537-4.144,9.073-6.211,13.609
		c-2.072,4.535-4.239,9.073-6.508,13.608c-0.759,0.381-1.513,0.852-2.269,1.417c-0.759,0.567-1.609,0.948-2.551,1.136
		c-0.947,0.19-1.798,0.281-2.552,0.281c-0.76,0-1.701,0-2.835,0l-5.671-2.834c-0.38-0.754-0.851-1.604-1.418-2.552
		c-0.567-0.941-0.946-1.888-1.135-2.835c-0.19-0.941-0.282-1.887-0.282-2.835c0-0.943,0-1.985,0-3.119
		c2.643-6.424,5.479-12.757,8.506-18.995c3.021-6.236,6.141-12.475,9.352-18.712c3.21-6.238,6.512-12.477,9.901-18.714
		c3.389-6.241,6.591-12.38,9.604-18.421l-24.322-0.567l-5.103,0.567l-5.671-2.826c-0.38-0.755-0.851-1.51-1.418-2.264
		c-0.567-0.75-0.946-1.601-1.134-2.543c-0.191-0.942-0.283-1.788-0.283-2.543c0-0.754,0-1.697,0-2.831l3.402-6.225
		c1.133-1.134,2.456-1.984,3.969-2.551c1.51-0.567,3.118-0.851,4.82-0.851c1.701,0,3.402,0,5.104,0s3.493,0,5.387,0v-1.134
		c-2.269-3.402-3.781-7.088-4.536-11.058c-0.759-3.969-1.515-7.938-2.269-11.908c-0.759-3.969-1.417-7.938-1.984-11.908
		s-1.043-8.03-1.418-12.192c0.375-0.754,0.659-1.417,0.851-1.984c0.188-0.567,0.375-1.226,0.567-1.985
		c0.188-0.755,0.471-1.418,0.851-1.985c0.375-0.566,0.754-1.226,1.134-1.984c0.754-0.375,1.51-0.851,2.269-1.418
		c0.755-0.566,1.604-0.941,2.552-1.134c0.942-0.188,1.792-0.283,2.552-0.283c0.758,0,1.705,0,2.844,0l5.684,2.835
		c1.893,3.782,2.932,7.847,3.122,12.191c0.188,4.348,0.756,8.601,1.707,12.759c0.945,4.161,1.988,8.317,3.123,12.475
		c1.134,4.162,1.888,8.318,2.268,12.475l-2.835,5.67h-0.567v1.134h7.259c0-6.425,0-12.946,0-19.563c0-6.613,0-13.134,0-19.563
		c0-6.425,0.278-12.85,0.846-19.279c0.567-6.426,2.168-12.475,4.807-18.146c0.754-0.375,1.509-0.851,2.264-1.417
		c0.75-0.568,1.601-0.942,2.544-1.135c0.941-0.187,1.787-0.283,2.543-0.283c0.754,0,1.696,0,2.83,0l5.653,2.835
		c0.375,0.759,0.85,1.514,1.417,2.268c0.567,0.759,0.942,1.609,1.134,2.552c0.188,0.947,0.284,1.797,0.284,2.552
		c0,0.759,0,1.702,0,2.835c-0.76,5.296-1.326,10.87-1.701,16.729c-0.38,5.862-0.566,11.72-0.566,17.578c0,5.862,0,11.72,0,17.579
		c0,5.862,0,11.624,0,17.294l17.589,1.702v-1.134l-5.104-2.268c-0.762-1.135-1.42-2.36-1.987-3.687
		c-0.566-1.321-0.946-2.739-1.134-4.252c-0.192-1.509-0.283-3.023-0.283-4.537c0-1.509,0-3.022,0-4.537
		c0-3.402,0.283-6.708,0.851-9.922c0.566-3.21,0.941-6.521,1.134-9.924c0.188-3.402,0.567-6.708,1.137-9.924
		c0.566-3.21,1.984-5.954,4.252-8.222c0.755-0.375,1.505-0.851,2.251-1.417c0.742-0.567,1.579-1.039,2.513-1.417
		c0.93-0.375,1.868-0.567,2.811-0.567s1.98,0,3.112,0l5.673,2.835c0.374,0.759,0.851,1.514,1.417,2.269
		c0.567,0.759,0.942,1.609,1.134,2.552c0.188,0.946,0.282,1.796,0.282,2.551c0,0.759,0,1.701,0,2.835
		c-1.513,3.402-2.459,7.088-2.833,11.057c-0.381,3.969-0.761,7.847-1.135,11.625c-0.38,3.782-0.476,7.751-0.284,11.907
		c0.188,4.162-0.851,7.752-3.118,10.775l-5.104,2.268v1.134c1.51,0,3.118,0,4.82,0c1.7,0,3.306,0,4.82,0
		c1.509,0,2.927,0.379,4.253,1.134c1.32,0.755,2.55,1.509,3.686,2.259c0.374,0.755,0.85,1.509,1.416,2.264
		c0.568,0.754,0.942,1.601,1.136,2.543c0.187,0.943,0.283,1.792,0.283,2.543c0,0.755,0,1.697,0,2.827l-2.835,5.658
		c-1.514,1.509-3.312,2.355-5.388,2.542c-2.08,0.193-4.253,0.285-6.521,0.285c-2.268,0-4.536,0-6.8,0c-2.265,0-4.528,0-6.788,0
		l-10.745-1.131v1.131c3.394,6.049,7.35,12.009,11.875,17.865c4.523,5.862,8.582,11.908,12.176,18.146
		c3.589,6.237,7.371,12.288,11.34,18.146c3.969,5.862,6.329,12.384,7.089,19.563l-2.836,5.673c-0.759,0.378-1.514,0.85-2.269,1.417
		c-0.759,0.565-1.608,0.944-2.551,1.133c-0.947,0.191-1.797,0.283-2.552,0.283c-0.759,0-1.701,0-2.836,0l-5.67-2.833l-25.464-42.532
		l-1.697-0.565c0,5.295,0,10.586,0,15.877c0,5.297-0.283,10.492-0.85,15.594c-0.567,5.104-0.942,10.303-1.13,15.594
		c-0.191,5.295-1.227,10.207-3.11,14.744c-0.755,0.379-1.509,0.851-2.264,1.416c-0.755,0.568-1.601,0.947-2.543,1.134
		c-0.942,0.194-1.793,0.286-2.543,0.286C512.037,229.355,511.095,229.355,509.965,229.355z"/>
	<path fill="#E83920" d="M346.59,37.932c7.082,14.11,20.741,20.91,30.51,15.184c9.771-5.718,11.949-21.792,4.863-35.903
		c-7.081-14.11-20.738-20.906-30.507-15.183C341.685,7.751,339.507,23.825,346.59,37.932z"/>
</g>
<g>
	<path fill="#E83920" d="M978.082,236.607c-4.915-1.127-9.737-2.167-14.462-3.108c-4.727-0.942-9.167-2.447-13.325-4.524
		c-4.161-2.072-8.033-4.896-11.624-8.479c-3.594-3.581-7.279-7.263-11.057-11.045c-8.686-9.072-14.912-19.279-18.682-30.62
		c-3.771-11.34-6.316-23.057-7.634-35.156c-1.318-12.097-2.072-24.197-2.259-36.297c-0.191-12.095-0.283-24.191-0.283-36.291
		c0.749-3.022,1.315-6.044,1.697-9.072c0.373-3.023,0.845-6.046,1.411-9.073c0.563-3.023,0.937-6.142,1.131-9.356
		c0.188-3.21,1.226-5.954,3.109-8.222c0.754-0.376,1.51-0.851,2.265-1.418c0.749-0.567,1.6-0.942,2.543-1.134
		c0.941-0.188,1.789-0.284,2.543-0.284c0.755,0,1.696,0,2.83,0l5.658,2.836c0.754,1.133,1.417,2.268,1.984,3.401
		c0.565,1.134,0.852,2.364,0.852,3.686c0,1.326,0,2.647,0,3.969c0,1.326,0,2.744,0,4.252c-1.136,4.916-2.082,9.923-2.836,15.027
		c-0.76,5.104-1.136,10.399-1.136,15.877c0,5.483,0,10.966,0,16.444c0,5.483,0,10.87,0,16.161c0.754,8.697,1.509,17.301,2.27,25.807
		c0.754,8.505,2.268,16.822,4.536,24.949c2.268,8.131,5.856,15.688,10.772,22.681c4.912,6.998,10.774,13.327,17.578,18.997
		c1.89,1.514,3.875,2.647,5.956,3.402c2.077,0.759,4.253,1.514,6.52,2.268c2.27,0.761,4.629,1.326,7.088,1.703
		c2.457,0.378,5.008,0.566,7.656,0.566c2.645,0,5.194-0.376,7.655-1.136c2.455-0.754,4.912-1.509,7.371-2.267
		c2.457-0.754,4.724-2.076,6.804-3.972c2.078-1.887,4.063-3.774,5.955-5.67l16.443-23.248c0.755-0.375,1.509-0.85,2.269-1.417
		c0.754-0.568,1.605-0.941,2.552-1.136c0.941-0.187,1.793-0.282,2.553-0.282c0.754,0,1.701,0,2.835,0l5.671,2.835
		c0.374,0.76,0.85,1.609,1.417,2.552c0.567,0.947,0.941,1.894,1.134,2.837c0.188,0.946,0.283,1.891,0.283,2.834
		c0,0.946,0,1.984,0,3.117l-2.834,5.671h-1.135c-1.515,2.269-3.026,4.634-4.536,7.089c-1.514,2.461-3.216,4.818-5.104,7.088
		c-1.893,2.268-3.688,4.538-5.387,6.801c-1.702,2.264-3.687,4.336-5.956,6.221c-3.025,2.64-6.144,4.902-9.355,6.786
		c-3.215,1.884-6.714,3.298-10.488,4.24c-3.782,0.941-7.565,1.697-11.341,2.263C986.208,236.33,982.238,236.607,978.082,236.607z"/>
	<path fill="#E83920" d="M980.051,105.254c7.08,14.105,20.741,20.911,30.508,15.184c9.77-5.723,11.952-21.792,4.863-35.903
		c-7.08-14.11-20.736-20.907-30.506-15.188C975.145,75.074,972.968,91.143,980.051,105.254z"/>
	<path fill="#E83920" d="M1033.154,102.405c7.084,14.111,20.741,20.911,30.512,15.184c9.77-5.718,11.946-21.792,4.863-35.902
		c-7.083-14.111-20.74-20.907-30.506-15.184C1028.25,72.225,1026.071,88.299,1033.154,102.405z"/>
</g>
<path fill="#AAABAB" d="M91.488,345.83l-1.172-0.586c-0.234-0.313-0.41-0.645-0.527-0.996s-0.176-0.723-0.176-1.113s0-0.781,0-1.172
	s0-0.781,0-1.172l0.117-0.117v-13.008l0.234-18.398l-0.117-3.281c0.078-0.156,0.137-0.293,0.176-0.41s0.078-0.254,0.117-0.41
	s0.098-0.293,0.176-0.41s0.156-0.254,0.234-0.41c0.156-0.078,0.313-0.176,0.469-0.293s0.332-0.195,0.527-0.234
	s0.371-0.059,0.527-0.059s0.352,0,0.586,0l1.172,0.586c0.469,0.859,0.684,1.836,0.645,2.93s-0.039,2.168,0,3.223
	s0.059,2.109,0.059,3.164s0,2.129,0,3.223l-0.117,4.453h0.234c0.625-1.328,1.348-2.617,2.168-3.867s1.621-2.52,2.402-3.809
	s1.563-2.559,2.344-3.809s1.563-2.539,2.344-3.867l0.469-0.469c0.156-0.078,0.313-0.176,0.469-0.293s0.332-0.195,0.527-0.234
	s0.371-0.059,0.527-0.059s0.352,0,0.586,0l1.172,0.586c0.078,0.156,0.176,0.313,0.293,0.469s0.195,0.332,0.234,0.527
	s0.059,0.391,0.059,0.586s0,0.41,0,0.645c-0.625,1.016-1.27,2.051-1.934,3.105s-1.289,2.109-1.875,3.164s-1.23,2.09-1.934,3.105
	s-1.328,2.07-1.875,3.164c0.938,1.953,1.719,3.906,2.344,5.859s1.309,3.887,2.051,5.801s1.543,3.828,2.402,5.742
	s1.445,3.887,1.758,5.918l-0.586,1.172c-0.156,0.078-0.313,0.176-0.469,0.293s-0.332,0.195-0.527,0.234s-0.371,0.059-0.527,0.059
	s-0.352,0-0.586,0l-1.289-0.703c-0.625-1.641-1.27-3.242-1.934-4.805s-1.309-3.145-1.934-4.746s-1.23-3.203-1.816-4.805
	s-1.113-3.223-1.582-4.863h-0.234c-0.234,0.313-0.449,0.625-0.645,0.938s-0.391,0.645-0.586,0.996s-0.371,0.703-0.527,1.055
	s-0.352,0.684-0.586,0.996l-1.055,0.469L94.184,342.9l0.117,1.055l-0.703,1.289c-0.156,0.078-0.313,0.176-0.469,0.293
	s-0.332,0.195-0.527,0.234s-0.371,0.059-0.527,0.059S91.723,345.83,91.488,345.83z"/>
<path fill="#AAABAB" d="M197.112,344.658c-0.547-0.078-1.094-0.176-1.641-0.293s-1.074-0.273-1.582-0.469s-0.996-0.43-1.465-0.703
	s-0.938-0.605-1.406-0.996c-0.938-1.172-1.738-2.422-2.402-3.75s-1.191-2.715-1.582-4.16s-0.723-2.91-0.996-4.395
	s-0.371-3.008-0.293-4.57c0.078-1.719,0.234-3.418,0.469-5.098s0.645-3.32,1.23-4.922s1.328-3.105,2.227-4.512
	s1.934-2.734,3.105-3.984c0.234-0.156,0.488-0.352,0.762-0.586s0.527-0.449,0.762-0.645s0.527-0.293,0.879-0.293s0.684,0,0.996,0
	l0.586,0.117l1.172-0.117l1.523,0.82l1.172,1.055c1.641,1.953,2.852,4.141,3.633,6.563s1.367,4.883,1.758,7.383
	s0.625,5.02,0.703,7.559s0.117,5.098,0.117,7.676c-0.156,0.547-0.273,1.074-0.352,1.582s-0.273,0.996-0.586,1.465
	s-0.664,0.918-1.055,1.348s-0.781,0.84-1.172,1.23c-0.469,0.391-0.957,0.762-1.465,1.113s-1.035,0.645-1.582,0.879
	s-1.113,0.391-1.699,0.469S197.737,344.58,197.112,344.658z M200.05,339.033l1.992-2.109c0.156-0.547,0.234-1.113,0.234-1.699
	s0-1.172,0-1.758s0-1.172,0-1.758s0-1.152,0-1.699c-0.156-1.641-0.293-3.34-0.41-5.098s-0.352-3.438-0.703-5.039
	s-0.781-3.184-1.289-4.746s-1.27-3.047-2.285-4.453c-0.156-0.078-0.273-0.156-0.352-0.234s-0.176-0.176-0.293-0.293
	s-0.254-0.176-0.41-0.176s-0.313,0-0.469,0c-1.094,1.172-2.051,2.461-2.871,3.867s-1.465,2.852-1.934,4.336s-0.742,3.066-0.82,4.746
	s-0.117,3.34-0.117,4.98c0.156,1.016,0.332,2.012,0.527,2.988s0.469,1.914,0.82,2.813s0.723,1.797,1.113,2.695
	s0.859,1.777,1.406,2.637c0.313,0.156,0.605,0.293,0.879,0.41s0.547,0.215,0.82,0.293s0.566,0.156,0.879,0.234
	s0.625,0.117,0.938,0.117L200.05,339.033z"/>
<path fill="#AAABAB" d="M285.25,345.126l-1.172-0.586c-0.234-0.313-0.41-0.684-0.527-1.113s-0.176-0.879-0.176-1.348
	s0-0.918,0-1.348s0-0.879,0-1.348c0.234-2.656,0.43-5.313,0.586-7.969s0.293-5.352,0.41-8.086s0.176-5.449,0.176-8.145
	s0.273-5.332,0.82-7.91c0.313-0.156,0.605-0.332,0.879-0.527s0.547-0.371,0.82-0.527s0.586-0.234,0.938-0.234s0.684,0,0.996,0
	l1.172,0.586c1.094,1.875,1.973,3.828,2.637,5.859s1.367,4.043,2.109,6.035s1.543,4.004,2.402,6.035s1.758,4.023,2.695,5.977h0.234
	c0-1.953,0-3.945,0-5.977s0.039-4.023,0.117-5.977s0.137-3.926,0.176-5.918s0.37-3.887,0.994-5.684
	c0.156-0.078,0.312-0.176,0.468-0.293c0.156-0.117,0.331-0.195,0.526-0.234c0.195-0.039,0.37-0.059,0.526-0.059
	c0.156,0,0.351,0,0.585,0l1.17,0.586c0.078,0.156,0.176,0.332,0.293,0.527s0.195,0.391,0.234,0.586s0.059,0.41,0.059,0.645
	s0,0.469,0,0.703c-0.078,1.016-0.137,2.07-0.176,3.164s-0.098,2.168-0.176,3.223s-0.117,2.129-0.117,3.223s-0.039,2.188-0.117,3.281
	v14.648l0.352,5.039l-1.054,1.992c-0.156,0.078-0.312,0.176-0.468,0.293c-0.156,0.117-0.332,0.195-0.526,0.234
	c-0.195,0.039-0.371,0.059-0.526,0.059c-0.156,0-0.351,0-0.585,0l-1.17-0.586c-0.937-2.266-1.913-4.551-2.929-6.855
	s-2.051-4.57-3.105-6.797s-2.031-4.531-2.93-6.914s-1.777-4.746-2.637-7.09H289c0.078,2.422,0.059,4.824-0.059,7.207
	s-0.254,4.746-0.41,7.09s-0.273,4.688-0.352,7.031s-0.352,4.648-0.82,6.914c-0.156,0.078-0.313,0.176-0.469,0.293
	s-0.332,0.195-0.527,0.234s-0.371,0.059-0.527,0.059S285.484,345.126,285.25,345.126z"/>
<path fill="#AAABAB" d="M383.925,345.126l-1.172-0.586c-0.078-0.156-0.195-0.332-0.352-0.527s-0.254-0.391-0.293-0.586
	s-0.078-0.391-0.117-0.586s-0.059-0.41-0.059-0.645c0.703-3.281,1.445-6.523,2.227-9.727s1.621-6.445,2.52-9.727
	s1.738-6.543,2.52-9.785s1.797-6.387,3.047-9.434c0.156-0.078,0.313-0.176,0.469-0.293s0.332-0.195,0.527-0.234
	s0.371-0.059,0.527-0.059s0.352,0,0.586,0c0.156,0.078,0.352,0.117,0.586,0.117s0.449,0.02,0.645,0.059s0.371,0.117,0.527,0.234
	s0.313,0.215,0.469,0.293c0.469,3.281,1.035,6.563,1.699,9.844s1.289,6.582,1.875,9.902s1.211,6.621,1.875,9.902
	s1.387,6.523,2.168,9.727l-0.586,1.172c-0.156,0.078-0.313,0.176-0.469,0.293s-0.332,0.215-0.527,0.293s-0.391,0.117-0.586,0.117
	s-0.41,0-0.645,0l-1.172-0.586c-0.625-1.016-1.035-2.129-1.23-3.34s-0.43-2.422-0.703-3.633s-0.547-2.402-0.82-3.574
	s-0.527-2.344-0.762-3.516l-5.859-0.234l-0.586,0.117l-0.703-0.117c-0.313,1.172-0.625,2.363-0.938,3.574s-0.625,2.422-0.938,3.633
	s-0.566,2.441-0.762,3.691s-0.488,2.461-0.879,3.633c-0.156,0.078-0.313,0.176-0.469,0.293s-0.332,0.195-0.527,0.234
	s-0.371,0.059-0.527,0.059S384.16,345.126,383.925,345.126z M390.839,325.439l-0.117-0.117l-0.117,0.117l0.117,0.117
	L390.839,325.439z M395.996,325.556v-0.703c-0.234-0.859-0.43-1.758-0.586-2.695s-0.352-1.836-0.586-2.695s-0.41-1.738-0.527-2.637
	s-0.371-1.699-0.762-2.402c-0.156,0.938-0.352,1.855-0.586,2.754s-0.488,1.797-0.762,2.695s-0.527,1.816-0.762,2.754
	s-0.469,1.875-0.703,2.813L395.996,325.556z"/>
<path fill="#AAABAB" d="M482.961,344.291c-0.156-0.078-0.293-0.137-0.41-0.176s-0.254-0.078-0.41-0.117s-0.293-0.098-0.41-0.176
	s-0.254-0.156-0.41-0.234c-0.078-0.156-0.176-0.332-0.293-0.527s-0.195-0.391-0.234-0.586s-0.059-0.391-0.059-0.586s0-0.41,0-0.645
	c1.406-2.734,2.695-5.508,3.867-8.32s2.539-5.547,4.102-8.203s3.066-5.332,4.512-8.027s2.949-5.332,4.512-7.91l-7.969-0.117
	l-4.219,0.234c-0.313-0.078-0.664-0.117-1.055-0.117s-0.742-0.02-1.055-0.059s-0.645-0.117-0.996-0.234s-0.645-0.293-0.879-0.527
	c-0.078-0.156-0.176-0.313-0.293-0.469s-0.195-0.332-0.234-0.527s-0.059-0.371-0.059-0.527s0-0.352,0-0.586l0.586-1.172
	c0.156-0.078,0.313-0.176,0.469-0.293s0.332-0.195,0.527-0.234s0.391-0.059,0.586-0.059s0.41,0,0.645,0l3.516,0.234l5.742-0.234
	c0.859,0.078,1.758,0.117,2.695,0.117s1.855,0.02,2.754,0.059s1.797,0.098,2.695,0.176s1.738,0.313,2.52,0.703
	c0.078,0.156,0.176,0.313,0.293,0.469s0.195,0.332,0.234,0.527s0.059,0.371,0.059,0.527s0,0.352,0,0.586l-0.586,1.172
	c-0.625,0.391-1.055,0.918-1.289,1.582s-0.566,1.27-0.996,1.816s-0.82,1.113-1.172,1.699s-0.723,1.191-1.113,1.816
	c-0.859,2.031-1.875,4.004-3.047,5.918s-2.285,3.809-3.34,5.684s-2.031,3.828-2.93,5.859s-1.777,4.023-2.637,5.977h0.352
	l2.813-0.117c0.938,0,1.855,0.08,2.754,0.238s1.797,0.257,2.695,0.297c0.898,0.039,1.836,0.059,2.813,0.059s1.934,0,2.871,0
	l1.875-0.117l1.172,0.585c0.078,0.156,0.176,0.313,0.293,0.468c0.117,0.156,0.195,0.332,0.234,0.527s0.059,0.37,0.059,0.525
	c0,0.156,0,0.352,0,0.586l-0.586,1.17c-0.625,0.39-1.328,0.623-2.109,0.701s-1.563,0.117-2.344,0.117s-1.582,0-2.402,0
	s-1.621,0-2.402,0c-0.625-0.078-1.23-0.176-1.816-0.293s-1.211-0.176-1.875-0.176s-1.309-0.039-1.934-0.117s-1.25-0.078-1.875,0
	c-0.391,0.078-0.801,0.156-1.23,0.234s-0.82,0.176-1.172,0.293s-0.742,0.215-1.172,0.293S483.352,344.212,482.961,344.291z"/>
<path fill="#AAABAB" d="M593.038,344.658c-0.547-0.078-1.094-0.176-1.641-0.293s-1.074-0.273-1.582-0.469s-0.996-0.43-1.465-0.703
	s-0.938-0.605-1.406-0.996c-0.938-1.172-1.738-2.422-2.402-3.75s-1.191-2.715-1.582-4.16s-0.723-2.91-0.996-4.395
	s-0.371-3.008-0.293-4.57c0.078-1.719,0.234-3.418,0.469-5.098s0.645-3.32,1.23-4.922s1.328-3.105,2.227-4.512
	s1.934-2.734,3.105-3.984c0.234-0.156,0.488-0.352,0.762-0.586s0.527-0.449,0.762-0.645s0.527-0.293,0.879-0.293s0.684,0,0.996,0
	l0.586,0.117l1.172-0.117l1.523,0.82l1.172,1.055c1.641,1.953,2.852,4.141,3.633,6.563s1.367,4.883,1.758,7.383
	s0.625,5.02,0.703,7.559s0.117,5.098,0.117,7.676c-0.156,0.547-0.273,1.074-0.352,1.582s-0.273,0.996-0.586,1.465
	s-0.664,0.918-1.055,1.348s-0.781,0.84-1.172,1.23c-0.469,0.391-0.957,0.762-1.465,1.113s-1.035,0.645-1.582,0.879
	s-1.113,0.391-1.699,0.469S593.663,344.58,593.038,344.658z M595.975,339.033l1.992-2.109c0.156-0.547,0.234-1.113,0.234-1.699
	s0-1.172,0-1.758s0-1.172,0-1.758s0-1.152,0-1.699c-0.156-1.641-0.293-3.34-0.41-5.098s-0.352-3.438-0.703-5.039
	s-0.781-3.184-1.289-4.746s-1.27-3.047-2.285-4.453c-0.156-0.078-0.273-0.156-0.352-0.234s-0.176-0.176-0.293-0.293
	s-0.254-0.176-0.41-0.176s-0.313,0-0.469,0c-1.094,1.172-2.051,2.461-2.871,3.867s-1.465,2.852-1.934,4.336s-0.742,3.066-0.82,4.746
	s-0.117,3.34-0.117,4.98c0.156,1.016,0.332,2.012,0.527,2.988s0.469,1.914,0.82,2.813s0.723,1.797,1.113,2.695
	s0.859,1.777,1.406,2.637c0.313,0.156,0.605,0.293,0.879,0.41s0.547,0.215,0.82,0.293s0.566,0.156,0.879,0.234
	s0.625,0.117,0.938,0.117L595.975,339.033z"/>
<path fill="#AAABAB" d="M681.174,345.83l-1.172-0.586c-0.234-0.313-0.41-0.645-0.527-0.996s-0.176-0.723-0.176-1.113
	s0-0.781,0-1.172s0-0.781,0-1.172l0.117-0.117v-13.008l0.234-18.398l-0.117-3.281c0.078-0.156,0.137-0.293,0.176-0.41
	s0.078-0.254,0.117-0.41s0.098-0.293,0.176-0.41s0.156-0.254,0.234-0.41c0.156-0.078,0.313-0.176,0.469-0.293
	s0.332-0.195,0.527-0.234s0.371-0.059,0.527-0.059s0.352,0,0.586,0l1.172,0.586c0.469,0.859,0.684,1.836,0.645,2.93
	s-0.039,2.168,0,3.223s0.059,2.109,0.059,3.164s0,2.129,0,3.223l-0.117,4.453h0.234c0.625-1.328,1.348-2.617,2.168-3.867
	s1.621-2.52,2.402-3.809s1.563-2.559,2.344-3.809s1.563-2.539,2.344-3.867l0.469-0.469c0.156-0.078,0.313-0.176,0.469-0.293
	s0.332-0.195,0.527-0.234s0.371-0.059,0.527-0.059s0.352,0,0.586,0l1.172,0.586c0.078,0.156,0.176,0.313,0.293,0.469
	s0.195,0.332,0.234,0.527s0.059,0.391,0.059,0.586s0,0.41,0,0.645c-0.625,1.016-1.27,2.051-1.934,3.105s-1.289,2.109-1.875,3.164
	s-1.23,2.09-1.934,3.105s-1.328,2.07-1.875,3.164c0.938,1.953,1.719,3.906,2.344,5.859s1.309,3.887,2.051,5.801
	s1.543,3.828,2.402,5.742s1.445,3.887,1.758,5.918l-0.586,1.172c-0.156,0.078-0.313,0.176-0.469,0.293s-0.332,0.195-0.527,0.234
	s-0.371,0.059-0.527,0.059s-0.352,0-0.586,0l-1.289-0.703c-0.625-1.641-1.27-3.242-1.934-4.805s-1.309-3.145-1.934-4.746
	s-1.23-3.203-1.816-4.805s-1.113-3.223-1.582-4.863h-0.234c-0.234,0.313-0.449,0.625-0.645,0.938s-0.391,0.645-0.586,0.996
	s-0.371,0.703-0.527,1.055s-0.352,0.684-0.586,0.996l-1.055,0.469L683.87,342.9l0.117,1.055l-0.703,1.289
	c-0.156,0.078-0.313,0.176-0.469,0.293s-0.332,0.195-0.527,0.234s-0.371,0.059-0.527,0.059S681.409,345.83,681.174,345.83z"/>
<path fill="#AAABAB" d="M785.367,345.009c-0.469-0.078-0.938-0.176-1.406-0.293s-0.918-0.252-1.348-0.408s-0.84-0.391-1.23-0.703
	c-0.391-0.311-0.781-0.623-1.172-0.936c-1.875-2.419-3.066-5.094-3.574-8.023s-0.82-5.918-0.938-8.965s-0.176-6.074-0.176-9.082
	s-0.039-5.996-0.117-8.965l0.586-1.172c0.156-0.078,0.313-0.176,0.469-0.293s0.332-0.195,0.527-0.234s0.371-0.059,0.527-0.059
	s0.352,0,0.586,0l1.172,0.586c0.625,2.734,0.918,5.527,0.879,8.379s-0.039,5.703,0,8.555s0.234,5.664,0.586,8.438
	s1.309,5.371,2.871,7.793c0.234,0.156,0.469,0.273,0.703,0.352s0.469,0.156,0.703,0.234s0.469,0.137,0.703,0.176
	s0.508,0.059,0.82,0.059c0.391-0.156,0.742-0.41,1.055-0.762s0.547-0.723,0.703-1.113s0.332-0.781,0.527-1.172
	s0.41-0.781,0.645-1.172c0.078-0.625,0.156-1.25,0.234-1.875s0.137-1.25,0.176-1.875s0.059-1.27,0.059-1.934s0-1.309,0-1.934
	c-0.078-1.719-0.137-3.457-0.176-5.215s-0.078-3.496-0.117-5.215s-0.078-3.438-0.117-5.156s-0.137-3.438-0.293-5.156
	c0.078-0.156,0.137-0.293,0.176-0.41s0.078-0.254,0.117-0.41s0.098-0.293,0.176-0.41s0.156-0.254,0.234-0.41
	c0.156-0.078,0.314-0.176,0.471-0.293s0.332-0.195,0.529-0.234c0.195-0.039,0.371-0.059,0.529-0.059c0.156,0,0.352,0,0.588,0
	l1.176,0.586c0.627,2.031,0.92,4.16,0.881,6.387s0,4.434,0.119,6.621c0.117,2.188,0.176,4.414,0.176,6.68s0.039,4.492,0.117,6.68
	c-0.156,1.016-0.273,2.031-0.352,3.047c-0.08,1.016-0.334,1.973-0.766,2.871s-0.881,1.777-1.352,2.635
	c-0.471,0.859-1.098,1.678-1.881,2.457c-0.314,0.234-0.666,0.469-1.057,0.703c-0.391,0.232-0.781,0.389-1.172,0.467
	s-0.801,0.137-1.23,0.176S785.835,345.009,785.367,345.009z"/>
<path fill="#AAABAB" d="M878.207,345.212c-0.313-0.078-0.605-0.176-0.879-0.293s-0.547-0.273-0.82-0.469s-0.547-0.371-0.82-0.527
	s-0.527-0.352-0.762-0.586c-0.469-0.703-0.957-1.426-1.465-2.168s-0.879-1.523-1.113-2.344s-0.469-1.66-0.703-2.52
	s-0.43-1.719-0.586-2.578c0.078-0.156,0.137-0.293,0.176-0.41s0.078-0.254,0.117-0.41s0.098-0.293,0.176-0.41
	s0.156-0.254,0.234-0.41c0.156-0.078,0.313-0.176,0.469-0.293s0.332-0.195,0.527-0.234s0.371-0.059,0.527-0.059s0.352,0,0.586,0
	l1.172,0.586c0.391,0.625,0.645,1.309,0.762,2.051s0.293,1.445,0.527,2.109s0.508,1.328,0.82,1.992s0.664,1.309,1.055,1.934
	c0.234,0,0.41,0.078,0.527,0.234s0.273,0.234,0.469,0.234s0.391,0,0.586,0s0.41,0,0.645,0c0.234-0.078,0.469-0.176,0.703-0.293
	s0.488-0.254,0.762-0.41s0.508-0.332,0.703-0.527s0.41-0.371,0.645-0.527c0.547-0.859,0.938-1.797,1.172-2.813
	s0.41-2.051,0.527-3.105s0.176-2.93,0.176-5.625s0.072-4.551,0.219-5.566v-13.359l-1.406-0.352l-1.172,0.117l-1.172-0.586
	c-0.078-0.156-0.176-0.313-0.293-0.469s-0.195-0.332-0.234-0.527s-0.059-0.371-0.059-0.527s0-0.352,0-0.586l0.586-1.172
	c0.234-0.156,0.469-0.313,0.703-0.469s0.508-0.254,0.82-0.293s0.625-0.059,0.938-0.059s0.625,0,0.938,0
	c0.624,0.313,1.268,0.488,1.931,0.527s1.345,0.078,2.048,0.117c0.701,0.039,1.385,0.098,2.049,0.176s1.27,0.313,1.816,0.703
	c0.078,0.156,0.176,0.313,0.293,0.469s0.195,0.332,0.234,0.527s0.059,0.371,0.059,0.527s0,0.352,0,0.586l-0.586,1.172
	c-0.156,0.078-0.332,0.176-0.527,0.293s-0.391,0.195-0.586,0.234s-0.41,0.059-0.645,0.059s-0.469,0-0.703,0l-0.469-0.117v13.008
	c-0.146,1.328-0.219,3.477-0.219,6.445s-0.098,5.117-0.293,6.445s-0.507,2.637-0.936,3.926s-1.072,2.48-1.93,3.574
	c-0.625,0.469-1.229,0.938-1.814,1.406c-0.586,0.469-1.23,0.82-1.934,1.055s-1.445,0.41-2.227,0.527
	S878.988,345.291,878.207,345.212z"/>
<path fill="#AAABAB" d="M978.039,345.228l-3.398-0.468l-2.695,0.116l-1.172-0.584c-0.078-0.156-0.176-0.313-0.293-0.469
	c-0.117-0.155-0.195-0.33-0.234-0.525s-0.059-0.371-0.059-0.527s0-0.351,0-0.584l0.586-1.17c0.234-0.234,0.488-0.41,0.762-0.527
	s0.586-0.176,0.938-0.176s0.684,0,0.996,0s0.625-0.039,0.938-0.117l0.117-0.586c-0.078-1.641-0.137-3.32-0.176-5.039
	s-0.078-3.418-0.117-5.098s-0.059-3.379-0.059-5.098s0-3.438,0-5.156l0.234-10.195h-0.469l-1.523,0.234
	c-0.156-0.078-0.313-0.137-0.469-0.176s-0.332-0.078-0.527-0.117s-0.352-0.117-0.469-0.234s-0.254-0.215-0.41-0.293
	c-0.078-0.156-0.176-0.313-0.293-0.469s-0.195-0.332-0.234-0.527s-0.059-0.371-0.059-0.527s0-0.352,0-0.586l0.586-1.172
	c0.625-0.391,1.309-0.605,2.051-0.645s1.484-0.078,2.227-0.117s1.484-0.078,2.227-0.117s1.504-0.059,2.285-0.059
	c0.234,0.078,0.488,0.137,0.762,0.176s0.566,0.078,0.879,0.117s0.586,0.117,0.82,0.234s0.469,0.254,0.703,0.41
	c0.078,0.156,0.176,0.313,0.293,0.469s0.195,0.332,0.234,0.527s0.059,0.371,0.059,0.527s0,0.352,0,0.586l-0.586,1.172
	c-0.156,0.078-0.313,0.176-0.469,0.293s-0.332,0.195-0.527,0.234s-0.391,0.078-0.586,0.117s-0.41,0.059-0.645,0.059l-1.289-0.234
	l-0.234,20.977c0.078,0.859,0.137,1.738,0.176,2.637s0.059,1.816,0.059,2.754s0,1.855,0,2.754s0.078,1.777,0.234,2.637
	c0.313,0,0.605,0,0.879,0s0.547,0,0.82,0s0.527,0.059,0.762,0.176s0.469,0.254,0.703,0.409c0.078,0.156,0.176,0.312,0.293,0.468
	s0.195,0.332,0.234,0.526c0.039,0.195,0.059,0.37,0.059,0.526s0,0.352,0,0.586l-0.586,1.169c-0.313,0.233-0.645,0.409-0.996,0.526
	s-0.703,0.176-1.055,0.176s-0.723,0-1.113,0S978.429,345.228,978.039,345.228z"/>
</svg>
